<svg xmlns="http://www.w3.org/2000/svg" width="72" height="72" viewBox="0 0 72 72"><g fill="none" fill-rule="evenodd"><rect width="0" height="72" fill="#CA0813" rx="4"/><path fill="#FFF" d="M19.94 32.536H6.156L6.606 28h13.856l-.522 4.536zm31.075 0H20.574c.044-.671.21-2.437.76-3.153.718-.933 1.26-1.3 2.234-1.383h25.307c1.036.1 1.593.608 2.057 1.467.334.617.162 2.394.083 3.07zm-14.85 1.6h14.594c-.025 1.458-.745 3.452-2.427 3.703h-7.276L40.483 44h-5.298l.98-9.863zm30.826-1.6h-15.46L51.98 28h12.882c1.212.1 2.01.734 2.137 1.834l-.009 2.702zm-5.685 1.6h5.416L65.586 44h-5.26l.98-9.863zm-9.962 0h5.415L55.625 44h-5.26l.979-9.863zm-17.42 0c.783.414 1.364 1.267 1.387 2.336.006.288-.414 4.436-.51 4.837-.582 1.777-1.736 2.593-2.678 2.691H19.42l.447-4.492 9.86-.034.255-1.6-7.414.089s-1.617.088-2.032-1.507a6.063 6.063 0 0 1-.157-2.32h13.545zm-14.66 4.004h-8.142l-.191 1.334h8.18L18.591 44H5v-.09l.97-9.773h13.755l-.46 4.003z"/></g></svg>